<?xml version="1.0" encoding="UTF-8"?>
<svg id="Layer_2" data-name="Layer 2" xmlns="http://www.w3.org/2000/svg" viewBox="0 0 1474.55 329.77">
  <defs>
    <style>
      .cls-1 {
        fill: #da1c5c;
      }

      .cls-2 {
        fill: #1c75bc;
      }

      .cls-3 {
        fill: none;
        stroke: #231f20;
        stroke-linecap: round;
        stroke-miterlimit: 10;
        stroke-width: 50px;
      }
    </style>
  </defs>
  <g id="Layer_1-2" data-name="Layer 1">
    <g>
      <line class="cls-3" x1="111.48" y1="25.03" x2="307.89" y2="25.03"/>
      <line class="cls-3" x1="115.93" y1="201.67" x2="190.15" y2="201.67"/>
      <path class="cls-3" d="M115.93,25.03c-48.44-1.23-88.53,37.36-90.83,83.75-2.46,49.57,38.95,94.04,90.83,92.89"/>
      <g>
        <line class="cls-3" x1="114.55" y1="113.34" x2="451.22" y2="113.34"/>
        <line class="cls-3" x1="282.89" y1="304.77" x2="282.89" y2="113.34"/>
      </g>
      <circle class="cls-1" cx="197.55" cy="203.02" r="44.72"/>
      <circle class="cls-2" cx="114.55" cy="112.81" r="44.72"/>
      <g>
        <path class="cls-1" d="M328.83,246.32c0-35.24,27.06-60.46,63.46-60.46,20.21,0,37.08,7.35,48.1,20.71l-17.37,16.03c-7.85-9.02-17.7-13.69-29.39-13.69-21.88,0-37.41,15.36-37.41,37.41s15.53,37.41,37.41,37.41c11.69,0,21.54-4.68,29.39-13.86l17.37,16.03c-11.02,13.53-27.89,20.88-48.27,20.88-36.24,0-63.3-25.22-63.3-60.46Z"/>
        <path class="cls-1" d="M446.9,259.85c0-27.06,20.88-46.26,49.43-46.26s49.27,19.21,49.27,46.26-20.71,46.26-49.27,46.26-49.43-19.21-49.43-46.26ZM519.21,259.85c0-15.53-9.85-24.88-22.88-24.88s-23.05,9.35-23.05,24.88,10.02,24.88,23.05,24.88,22.88-9.35,22.88-24.88Z"/>
        <path class="cls-1" d="M654.82,253.33v51.44h-26.05v-47.43c0-14.53-6.68-21.21-18.2-21.21-12.53,0-21.54,7.68-21.54,24.22v44.42h-26.05v-89.85h24.88v10.52c7.01-7.68,17.54-11.86,29.73-11.86,21.21,0,37.24,12.36,37.24,39.75Z"/>
        <path class="cls-1" d="M770.21,253.33v51.44h-26.05v-47.43c0-14.53-6.68-21.21-18.2-21.21-12.53,0-21.54,7.68-21.54,24.22v44.42h-26.05v-89.85h24.88v10.52c7.01-7.68,17.54-11.86,29.73-11.86,21.21,0,37.24,12.36,37.24,39.75Z"/>
        <path class="cls-1" d="M882.27,267.2h-67.97c2.5,11.19,12.02,18.04,25.72,18.04,9.52,0,16.37-2.84,22.55-8.68l13.86,15.03c-8.35,9.52-20.88,14.53-37.08,14.53-31.06,0-51.27-19.54-51.27-46.26s20.54-46.26,47.93-46.26,46.76,17.7,46.76,46.6c0,2-.33,4.84-.5,7.01ZM813.96,252h44.26c-1.84-11.36-10.35-18.71-22.04-18.71s-20.38,7.18-22.21,18.71Z"/>
        <path class="cls-1" d="M893.45,259.85c0-27.06,20.88-46.26,50.1-46.26,18.87,0,33.74,8.18,40.25,22.88l-20.21,10.86c-4.84-8.52-12.02-12.36-20.21-12.36-13.19,0-23.55,9.19-23.55,24.88s10.35,24.88,23.55,24.88c8.18,0,15.37-3.67,20.21-12.36l20.21,11.02c-6.51,14.36-21.38,22.71-40.25,22.71-29.23,0-50.1-19.21-50.1-46.26Z"/>
      </g>
      <g>
        <path class="cls-2" d="M1018.8,206.24h-38.75v-18.37h99.2v18.37h-38.75v98.53h-21.71v-98.53Z"/>
        <path class="cls-2" d="M1167.94,266.86h-69.98c2.5,13.03,13.36,21.38,28.89,21.38,10.02,0,17.87-3.17,24.22-9.69l11.19,12.86c-8.02,9.52-20.54,14.53-35.91,14.53-29.89,0-49.27-19.21-49.27-45.76s19.54-45.59,46.09-45.59,45.09,18.2,45.09,46.09c0,1.67-.17,4.17-.33,6.18ZM1097.79,253h50.6c-1.67-12.86-11.52-21.71-25.22-21.71s-23.38,8.68-25.38,21.71Z"/>
        <path class="cls-2" d="M1271.81,266.86h-69.98c2.5,13.03,13.36,21.38,28.89,21.38,10.02,0,17.87-3.17,24.22-9.69l11.19,12.86c-8.02,9.52-20.54,14.53-35.91,14.53-29.89,0-49.27-19.21-49.27-45.76s19.54-45.59,46.09-45.59,45.09,18.2,45.09,46.09c0,1.67-.17,4.17-.33,6.18ZM1201.67,253h50.6c-1.67-12.86-11.52-21.71-25.22-21.71s-23.38,8.68-25.38,21.71Z"/>
        <path class="cls-2" d="M1380.03,253.67v51.1h-20.88v-48.43c0-15.87-7.85-23.55-21.21-23.55-14.86,0-24.88,9.02-24.88,26.89v45.09h-20.88v-89.18h19.87v11.52c6.85-8.18,17.7-12.53,30.73-12.53,21.38,0,37.24,12.19,37.24,39.08Z"/>
        <path class="cls-2" d="M1396.39,295.92l8.02-15.87c7.85,5.18,19.87,8.85,31.06,8.85,13.19,0,18.71-3.67,18.71-9.85,0-17.04-55.11-1-55.11-36.58,0-16.87,15.2-27.89,39.25-27.89,11.86,0,25.39,2.84,33.4,7.68l-8.02,15.87c-8.52-5.01-17.04-6.68-25.55-6.68-12.69,0-18.7,4.18-18.7,10.02,0,18.04,55.11,2,55.11,36.91,0,16.7-15.37,27.56-40.42,27.56-14.86,0-29.73-4.34-37.74-10.02Z"/>
      </g>
    </g>
  </g>
</svg>