<?xml version="1.0" encoding="utf-8"?>
<!-- Generator: Adobe Illustrator 19.2.1, SVG Export Plug-In . SVG Version: 6.00 Build 0)  -->
<svg version="1.1" id="Layer_1" xmlns="http://www.w3.org/2000/svg" xmlns:xlink="http://www.w3.org/1999/xlink" x="0px" y="0px"
	 viewBox="0 0 100 100" style="enable-background:new 0 0 100 100;" xml:space="preserve">
<style type="text/css">
	.st0{fill:#630E0E;}
	.st1{fill:#D74527;stroke:#F7F0DB;stroke-width:3.3196;stroke-miterlimit:10;}
	.st2{fill:none;stroke:#F7F0DB;stroke-width:2;stroke-miterlimit:10;}
</style>
<g>
	<g>
		<path class="st0" d="M30.4,48.9L30.4,48.9l0.8,0.8l29.3,28.6L89,49.1l0.8-0.8l0,0c7.3-8.3,6.9-21-1.1-28.8l-0.1-0.1
			c-8-7.8-20.7-7.9-28.8-0.4c-8.3-7.3-21-6.9-28.8,1.1l-0.1,0.1C23,28.1,22.9,40.8,30.4,48.9z"/>
		<path class="st1" d="M10.1,57.8L10.1,57.8l0.8,0.8l29.3,28.6L68.8,58l0.8-0.8l0,0c7.3-8.3,6.9-21-1.1-28.8l-0.1-0.1
			c-8-7.8-20.7-7.9-28.8-0.4c-8.3-7.3-21-6.9-28.8,1.1L10.6,29C2.7,37,2.6,49.7,10.1,57.8z"/>
	</g>
	<polyline class="st2" points="7.4,54.3 24.4,54.3 27.9,49.5 31.6,62.2 31.6,38.5 42.4,71 42.4,49 45.3,54.8 71.3,54.8 	"/>
</g>
</svg>
