<?xml version="1.0" encoding="utf-8"?>
<!-- Generator: Adobe Illustrator 19.2.1, SVG Export Plug-In . SVG Version: 6.00 Build 0)  -->
<svg version="1.1" id="Layer_1" xmlns="http://www.w3.org/2000/svg" xmlns:xlink="http://www.w3.org/1999/xlink" x="0px" y="0px"
	 viewBox="0 0 106.5 86.2" style="enable-background:new 0 0 106.5 86.2;" xml:space="preserve">
<metadata><?xpacket begin="﻿" id="W5M0MpCehiHzreSzNTczkc9d"?>
<x:xmpmeta xmlns:x="adobe:ns:meta/" x:xmptk="Adobe XMP Core 5.6-c111 79.158366, 2015/09/25-01:12:00        ">
   <rdf:RDF xmlns:rdf="http://www.w3.org/1999/02/22-rdf-syntax-ns#">
      <rdf:Description rdf:about=""/>
   </rdf:RDF>
</x:xmpmeta>
                                                                                                    
                                                                                                    
                                                                                                    
                                                                                                    
                                                                                                    
                                                                                                    
                                                                                                    
                                                                                                    
                                                                                                    
                                                                                                    
                                                                                                    
                                                                                                    
                                                                                                    
                                                                                                    
                                                                                                    
                                                                                                    
                                                                                                    
                                                                                                    
                                                                                                    
                                                                                                    
                           
<?xpacket end="w"?></metadata>
<style type="text/css">
	.st0{fill:#781214;}
	.st1{fill-rule:evenodd;clip-rule:evenodd;fill:#781214;}
</style>
<g>
	<g>
		<path class="st0" d="M11.9,38c-0.6-0.3-1.3-0.4-1.9-0.4c-2.4,0-4.6,1.7-4.6,4.3c0,3.1,2.5,5.5,7.4,5.5c0.1-7.2,4.4-16.1,11.2-16.1
			c3.1,0,4.6,2,4.6,4.6c0,4.7-4.7,11.4-13.3,12.4c0,3.5,0.8,6.3,3.1,6.8c-0.1-0.5-0.2-1.1-0.2-1.6c0-3.3,1.8-6.6,5.1-6.6
			c2.2,0,3.3,1.5,3.3,3.4c0,2.4-1.9,5.3-5.8,5.9c0.6,1.2,1.7,2.1,3.1,2.4l-0.7,1.6c-2.3-0.4-3.8-2-4.5-3.9c-3.8-0.3-5.6-3.7-5.9-7.9
			c-6.3,0-9.7-3.2-9.7-6.8c0-3.8,3.3-6.1,6.8-6.1c1,0,2,0.2,3,0.6L11.9,38z M15.4,47.3c7.3-1.2,10.9-7.6,10.9-11.6
			c0-1.8-0.8-3.1-2.3-3.1C19.5,32.5,15.9,40.7,15.4,47.3z M20.1,53c0,0.8,0.1,1.5,0.3,2.3c2.8-0.6,4.3-3.3,4.3-5.2
			c0-1.1-0.5-1.9-1.6-1.9C21.2,48.2,20.1,50.5,20.1,53z"/>
		<path class="st0" d="M34.6,41.1h1.9c-0.8,3-1.3,5.4-1.7,7.6c-0.1,0.2-0.1,0.4-0.1,0.6c0,0.3,0.1,0.5,0.2,0.5
			c0.3,0,1.4-1.1,2.7-3.8c0.2,0,0.7,0.2,0.7,0.3c-1.6,3.6-2.9,5.1-4.1,5.1c-0.8,0-1.3-0.6-1.3-2.2c0-0.1,0-0.2,0-0.2
			c-0.6,1.4-1.5,2.5-3.1,2.5c-1.3,0-1.8-1.2-1.8-2.8c0-3.1,2-7.8,4.5-7.8c1,0,1.5,0.5,1.7,1.5L34.6,41.1z M30.3,48.4
			c0,0.7,0.2,1.2,0.6,1.2c1.2,0,2.7-3.6,2.7-5.7c0-0.8-0.2-1.4-0.8-1.4C31.6,42.5,30.3,46.4,30.3,48.4z"/>
		<path class="st0" d="M41.3,49.7c0.6,0,1.5-1.2,2.7-3.7c0.1,0,0.7,0.2,0.7,0.3v0c-1.2,2.5-2.1,5.1-4.2,5.1c-1.2,0-1.7-0.7-1.7-1.7
			c0-1.4,1.2-3,1.2-4.2c0-0.7-0.2-1.2-0.5-1.6l-1.1,2.4c0,0-0.7-0.1-0.7-0.3v0c0.5-1.1,0.8-2.2,1.1-3.3c-0.3-0.5-0.5-1.1-0.5-1.9
			c0-0.7,0.2-1.6,0.6-2.8l2,0.5c-0.1,1.5-0.3,2.5-0.7,3.7c0.9,0.8,2,1.6,2,2.9c0,1.4-1.2,3.3-1.2,4.1C40.9,49.5,41,49.7,41.3,49.7z"
			/>
		<path class="st0" d="M51.6,33.7h2.1c-0.1,1.9-1.1,6.5-2.2,10.2c-0.5,2.4-0.7,3.8-0.7,4.5c0,0.5,0.1,0.6,0.3,0.6
			c0.6,0,1.4-1.3,2.2-3.1c0.2,0,0.7,0.2,0.7,0.3c-1.6,3.6-3.1,5.1-4.3,5.1c-0.8,0-1.3-0.6-1.3-2.2c0-0.1,0-0.2,0-0.2
			c-0.6,1.4-1.5,2.5-3,2.5c-1.3,0-1.8-1.2-1.8-2.8c0-3.1,2-7.8,4.5-7.8c1,0,1.5,0.5,1.7,1.5L51.6,33.7z M45.8,48.4
			c0,0.7,0.2,1.2,0.5,1.2c1.2,0,2.7-3.6,2.7-5.7c0-0.8-0.2-1.4-0.8-1.4C47.1,42.5,45.8,46.4,45.8,48.4z"/>
		<path class="st0" d="M56.8,41.1c-0.9,3.5-1.7,6.1-1.7,7.9c0,0.6,0.3,0.8,0.5,0.8c0.7,0,1.6-1.2,2.7-3.8c0.1,0,0.7,0.2,0.7,0.3v0
			c-1.2,2.5-2.1,5.1-4.2,5.1c-1.4,0-1.9-1.1-1.9-2.7c0-2.5,1.2-6,1.6-7.6H56.8z M54.8,38.7c0-0.8,0.7-1.8,1.8-1.8
			c0.9,0,1.2,0.5,1.2,1.2c0,0.8-0.7,1.7-1.8,1.7C55.2,39.8,54.8,39.3,54.8,38.7z"/>
		<path class="st0" d="M67.7,46.2c-0.6,1.3-1.8,2.3-3.1,2.7c-0.9,1.6-2.2,2.6-3.9,2.6c-1.8,0-2.6-1.6-2.6-3.6c0-1.2,0.3-2.7,0.8-4
			l0.9,0.2c0.3-1.7,1.4-3.2,3.3-3.2c1.8,0,2.7,1.7,2.7,3.7c0,1.1-0.3,2.2-0.7,3.2c0.7-0.3,1.3-0.8,1.8-1.9
			C67.1,45.9,67.7,46.1,67.7,46.2z M62.2,48.9c-1.1-0.4-1.8-1.2-2.2-2.3c-0.1,0.3-0.1,0.7-0.1,1c0,1.3,0.4,2.2,1.1,2.2
			c0.1,0,0.1,0,0.2,0C61.6,49.7,61.9,49.3,62.2,48.9z M61.2,45.3c0,1.2,0.4,2.4,1.6,2.7c0.6-1.2,1-2.7,1-3.9c0-1-0.3-1.8-1-1.8
			c-0.1,0-0.1,0-0.2,0C61.8,42.4,61.2,43.9,61.2,45.3z"/>
		<path class="st0" d="M72.9,45.9c0.1,0,0.6,0.2,0.6,0.3c0,0,0,0,0,0c-1.6,3.6-2.8,5.2-4.5,5.2c-1.6,0-2.2-1.3-2.2-3.6
			c0-1.6,0.3-3.8,0.8-6.3c1.2-5.6,2.8-8.1,4.4-8.1c1.4,0,1.8,0.9,1.8,2.1c0,1.3-0.5,2.9-0.8,3.6c-1.1,2.9-2.8,5.1-3.9,6.2
			c-0.1,1-0.2,1.8-0.2,2.5c0,1.5,0.4,2,1,2C70.8,49.8,71.8,48.4,72.9,45.9z M72.4,34.9c-0.7,0-2.3,4.8-3,9c1.3-2,3.3-5.7,3.3-8.5
			C72.7,35.1,72.5,34.9,72.4,34.9z"/>
		<path class="st0" d="M82.3,46.2c-0.6,1.3-1.8,2.3-3.1,2.7c-0.9,1.6-2.2,2.6-3.9,2.6c-1.8,0-2.6-1.6-2.6-3.6c0-1.2,0.3-2.7,0.8-4
			l0.9,0.2c0.3-1.7,1.4-3.2,3.3-3.2c1.8,0,2.7,1.7,2.7,3.7c0,1.1-0.3,2.2-0.7,3.2c0.7-0.3,1.3-0.8,1.8-1.9
			C81.7,45.9,82.3,46.1,82.3,46.2z M76.8,48.9c-1.1-0.4-1.8-1.2-2.2-2.3c-0.1,0.3-0.1,0.7-0.1,1c0,1.3,0.4,2.2,1.1,2.2
			c0.1,0,0.1,0,0.2,0C76.2,49.7,76.5,49.3,76.8,48.9z M75.8,45.3c0,1.2,0.4,2.4,1.6,2.7c0.6-1.2,1-2.7,1-3.9c0-1-0.3-1.8-1-1.8
			c-0.1,0-0.1,0-0.2,0C76.4,42.4,75.8,43.9,75.8,45.3z"/>
		<path class="st0" d="M91.1,46.2C91.1,46.2,91.1,46.2,91.1,46.2c-1,2.2-2.4,3.8-3.9,5l-0.6,2.9c-0.4,2.2-1.4,3.9-3.1,3.9
			c-1.2,0-2-0.6-2-1.8c0-1.5,1.7-2.8,3.6-4.4c0.2-0.7,0.3-1.4,0.4-2.1c-0.7,1-1.5,1.7-2.6,1.7c-1.3,0-1.8-1.2-1.8-2.8
			c0-3.1,2-7.8,4.5-7.8c0.8,0,1.3,0.4,1.4,1.2l0.2-1h2.2c-0.3,1-1.2,5.1-1.9,8.7c1.1-1.1,2.1-2.3,2.8-3.8
			C90.6,45.9,91.1,46.1,91.1,46.2z M83.5,56.8c0.4,0,0.7-0.4,0.8-1.1l0.5-2.4c-1.1,1-1.9,1.8-1.9,2.9C83,56.7,83.2,56.8,83.5,56.8z
			 M83.3,48.4c0,0.7,0.2,1.2,0.6,1.2c1.2,0,2.7-3.6,2.7-5.7c0-0.8-0.2-1.4-0.8-1.4C84.7,42.5,83.3,46.4,83.3,48.4z"/>
		<path class="st0" d="M93.8,41.1c-0.9,3.5-1.7,6.1-1.7,7.9c0,0.6,0.3,0.8,0.5,0.8c0.7,0,1.6-1.2,2.7-3.8c0.1,0,0.7,0.2,0.7,0.3v0
			c-1.2,2.5-2.1,5.1-4.2,5.1c-1.4,0-1.9-1.1-1.9-2.7c0-2.5,1.2-6,1.6-7.6H93.8z M91.9,38.7c0-0.8,0.7-1.8,1.8-1.8
			c0.9,0,1.2,0.5,1.2,1.2c0,0.8-0.7,1.7-1.8,1.7C92.3,39.8,91.9,39.3,91.9,38.7z"/>
		<path class="st0" d="M102.9,45.9c0.2,0,0.7,0.2,0.7,0.3c-1.3,2.9-2.6,5.2-5.2,5.2c-2.3,0-3.2-1.8-3.2-3.9c0-3,2-6.7,4.9-6.7
			c1.3,0,2,0.8,2,1.8c0,1.6-1.6,3.7-4.7,4.1c0,0.1,0,0.2,0,0.3c0,1.3,0.4,2.4,1.7,2.4C100.6,49.6,101.9,48.2,102.9,45.9z M97.5,46
			c2-0.8,2.8-2.4,2.8-3.2c0-0.3-0.2-0.6-0.4-0.6C98.8,42.2,97.8,44.1,97.5,46z"/>
	</g>
	<g>
		<path class="st0" d="M29.1,63.7L28,59.9h0.6l0.6,2.1l0.2,0.8c0,0,0.1-0.3,0.2-0.8l0.6-2.2h0.6l0.6,2.1l0.2,0.7l0.2-0.7l0.6-2.1H33
			l-1.2,3.7h-0.7l-0.6-2.2l-0.1-0.6l-0.8,2.9H29.1z"/>
		<path class="st0" d="M34.3,63.7l-1.1-3.7h0.6l0.6,2.1l0.2,0.8c0,0,0.1-0.3,0.2-0.8l0.6-2.2H36l0.6,2.1l0.2,0.7l0.2-0.7l0.6-2.1
			h0.6l-1.2,3.7h-0.7l-0.6-2.2l-0.1-0.6l-0.8,2.9H34.3z"/>
		<path class="st0" d="M39.4,63.7l-1.1-3.7h0.6l0.6,2.1l0.2,0.8c0,0,0.1-0.3,0.2-0.8l0.6-2.2h0.6l0.6,2.1l0.2,0.7l0.2-0.7l0.6-2.1
			h0.6l-1.2,3.7h-0.7L41,61.4l-0.1-0.6l-0.8,2.9H39.4z"/>
	</g>
	<g>
		<path class="st0" d="M43.7,63.7v-0.7h0.7v0.7H43.7z"/>
		<path class="st0" d="M45.5,63.7v-3.7h0.6v0.5c0.1-0.2,0.3-0.3,0.5-0.4s0.4-0.2,0.7-0.2c0.3,0,0.5,0.1,0.7,0.2s0.3,0.3,0.4,0.5
			c0.3-0.4,0.7-0.6,1.1-0.6c0.4,0,0.7,0.1,0.8,0.3c0.2,0.2,0.3,0.5,0.3,0.9v2.5h-0.6v-2.3c0-0.3,0-0.4-0.1-0.5
			c0-0.1-0.1-0.2-0.2-0.3s-0.2-0.1-0.4-0.1c-0.3,0-0.5,0.1-0.6,0.3c-0.2,0.2-0.3,0.5-0.3,0.8v2.2h-0.6v-2.4c0-0.3-0.1-0.5-0.2-0.6
			s-0.3-0.2-0.5-0.2c-0.2,0-0.3,0-0.5,0.1c-0.2,0.1-0.3,0.2-0.3,0.4c-0.1,0.2-0.1,0.4-0.1,0.8v1.9H45.5z"/>
		<path class="st0" d="M54,62.5l0.6,0.1c-0.1,0.4-0.3,0.7-0.6,0.9c-0.3,0.2-0.6,0.3-1.1,0.3c-0.5,0-1-0.2-1.3-0.5s-0.5-0.8-0.5-1.4
			c0-0.6,0.2-1.1,0.5-1.5s0.7-0.5,1.2-0.5c0.5,0,0.9,0.2,1.2,0.5c0.3,0.3,0.5,0.8,0.5,1.4c0,0,0,0.1,0,0.2h-2.8
			c0,0.4,0.1,0.7,0.3,0.9c0.2,0.2,0.5,0.3,0.8,0.3c0.2,0,0.4-0.1,0.6-0.2S53.9,62.7,54,62.5z M51.9,61.4H54c0-0.3-0.1-0.5-0.2-0.7
			c-0.2-0.2-0.5-0.4-0.8-0.4c-0.3,0-0.5,0.1-0.7,0.3C52,60.9,51.9,61.1,51.9,61.4z"/>
		<path class="st0" d="M57.8,63.7v-0.5c-0.2,0.4-0.6,0.6-1,0.6c-0.3,0-0.6-0.1-0.8-0.2s-0.4-0.4-0.6-0.7c-0.1-0.3-0.2-0.6-0.2-1
			c0-0.4,0.1-0.7,0.2-1c0.1-0.3,0.3-0.5,0.6-0.7c0.2-0.2,0.5-0.2,0.8-0.2c0.2,0,0.4,0,0.6,0.1c0.2,0.1,0.3,0.2,0.4,0.4v-1.8h0.6v5.1
			H57.8z M55.8,61.8c0,0.5,0.1,0.8,0.3,1.1c0.2,0.2,0.4,0.4,0.7,0.4c0.3,0,0.5-0.1,0.7-0.3c0.2-0.2,0.3-0.6,0.3-1
			c0-0.5-0.1-0.9-0.3-1.1c-0.2-0.2-0.4-0.4-0.7-0.4c-0.3,0-0.5,0.1-0.7,0.3C55.9,61,55.8,61.3,55.8,61.8z"/>
		<path class="st0" d="M59.4,59.3v-0.7H60v0.7H59.4z M59.4,63.7v-3.7H60v3.7H59.4z"/>
		<path class="st0" d="M61,65.1v-5.1h0.6v0.5c0.1-0.2,0.3-0.3,0.5-0.4c0.2-0.1,0.4-0.1,0.6-0.1c0.3,0,0.6,0.1,0.8,0.2
			s0.4,0.4,0.5,0.7c0.1,0.3,0.2,0.6,0.2,1c0,0.4-0.1,0.7-0.2,1c-0.1,0.3-0.3,0.5-0.6,0.7c-0.3,0.2-0.5,0.2-0.8,0.2
			c-0.2,0-0.4,0-0.6-0.1c-0.2-0.1-0.3-0.2-0.4-0.3v1.8H61z M61.6,61.8c0,0.5,0.1,0.8,0.3,1.1c0.2,0.2,0.4,0.3,0.7,0.3
			c0.3,0,0.5-0.1,0.7-0.4c0.2-0.2,0.3-0.6,0.3-1.1c0-0.5-0.1-0.8-0.3-1.1c-0.2-0.2-0.4-0.4-0.7-0.4c-0.3,0-0.5,0.1-0.7,0.4
			S61.6,61.3,61.6,61.8z"/>
		<path class="st0" d="M65,63.7v-3.7h0.6v0.6c0.1-0.3,0.3-0.4,0.4-0.5c0.1-0.1,0.3-0.1,0.4-0.1c0.2,0,0.4,0.1,0.6,0.2l-0.2,0.6
			c-0.2-0.1-0.3-0.1-0.5-0.1c-0.1,0-0.3,0-0.4,0.1c-0.1,0.1-0.2,0.2-0.2,0.3c-0.1,0.2-0.1,0.5-0.1,0.7v1.9H65z"/>
		<path class="st0" d="M67.1,61.8c0-0.7,0.2-1.2,0.6-1.5c0.3-0.3,0.7-0.4,1.2-0.4c0.5,0,0.9,0.2,1.2,0.5s0.5,0.8,0.5,1.4
			c0,0.5-0.1,0.9-0.2,1.1c-0.1,0.3-0.4,0.5-0.6,0.6c-0.3,0.2-0.6,0.2-0.9,0.2c-0.5,0-0.9-0.2-1.3-0.5C67.3,62.9,67.1,62.4,67.1,61.8
			z M67.8,61.8c0,0.5,0.1,0.8,0.3,1.1c0.2,0.2,0.5,0.4,0.8,0.4c0.3,0,0.6-0.1,0.8-0.4s0.3-0.6,0.3-1.1c0-0.5-0.1-0.8-0.3-1
			s-0.5-0.4-0.8-0.4c-0.3,0-0.6,0.1-0.8,0.4C67.9,61,67.8,61.3,67.8,61.8z"/>
		<path class="st0" d="M71.5,63.7v-0.7h0.7v0.7H71.5z"/>
		<path class="st0" d="M73.3,63.7v-3.7h0.6v0.6c0.1-0.3,0.3-0.4,0.4-0.5c0.1-0.1,0.3-0.1,0.4-0.1c0.2,0,0.4,0.1,0.6,0.2l-0.2,0.6
			c-0.2-0.1-0.3-0.1-0.5-0.1c-0.1,0-0.3,0-0.4,0.1c-0.1,0.1-0.2,0.2-0.2,0.3c-0.1,0.2-0.1,0.5-0.1,0.7v1.9H73.3z"/>
		<path class="st0" d="M75.4,61.8c0-0.7,0.2-1.2,0.6-1.5c0.3-0.3,0.7-0.4,1.2-0.4c0.5,0,0.9,0.2,1.2,0.5s0.5,0.8,0.5,1.4
			c0,0.5-0.1,0.9-0.2,1.1c-0.1,0.3-0.4,0.5-0.6,0.6c-0.3,0.2-0.6,0.2-0.9,0.2c-0.5,0-0.9-0.2-1.3-0.5C75.6,62.9,75.4,62.4,75.4,61.8
			z M76.1,61.8c0,0.5,0.1,0.8,0.3,1.1c0.2,0.2,0.5,0.4,0.8,0.4c0.3,0,0.6-0.1,0.8-0.4s0.3-0.6,0.3-1.1c0-0.5-0.1-0.8-0.3-1
			s-0.5-0.4-0.8-0.4c-0.3,0-0.6,0.1-0.8,0.4C76.2,61,76.1,61.3,76.1,61.8z"/>
	</g>
	<path class="st1" d="M51.4,25.1c-0.3,0.2-0.7,0.3-1.1,0.3c-1.6,0.2-2.8,0-2.8,0s2.2,1.3,5.2,0.4C52.3,25.6,51.8,25.3,51.4,25.1
		 M43.7,21.6c1.4,1.2,3,2.4,4.7,3.4c-0.2,0-0.4,0-0.5,0C44.6,25.1,43.8,22.7,43.7,21.6z M55.5,25.1c0.3,0.2,0.7,0.3,1.1,0.3
		c1.6,0.2,2.8,0,2.8,0s-2.2,1.3-5.2,0.4C54.6,25.6,55.1,25.3,55.5,25.1z M63.2,21.6c-1.4,1.2-3,2.4-4.7,3.4c0.2,0,0.4,0,0.5,0
		C62.4,25.1,63.1,22.7,63.2,21.6z M53.5,81.7l0.5,0c0.2,0,0.4,0,0.6,0c0,0-0.1,0-0.4,0c1.7,0,3.5-0.1,5.2-0.2
		c8.2-0.7,17.6-2.8,21.8-6.1c2.2-1.7,2.7-3.2,2-3.5c-1.4-0.7,0.5-1.7,1.8-1.2c1.2,0.5,3.3,3.4-8.4,7.7c-2.1,0.8-4.2,1.4-6.3,1.8
		c7.2-1.3,14-3.5,17.7-6.3c2.7-2,3.3-3.9,2.4-4.3c-1.7-0.8,0.6-2.1,2.2-1.5c1.5,0.6,4.1,4.2-10.4,9.5c-3.7,1.4-7.5,2.3-11.1,2.9
		l0.1,0.1c0,0-0.1,1.3-8.7,2.3c-3,0.3-6,0.5-9,0.5h-0.1c-3,0-6-0.2-9-0.5c-8.7-1-8.7-2.3-8.7-2.3l0.1-0.1c-3.6-0.6-7.3-1.6-11.1-2.9
		c-14.4-5.3-11.9-8.9-10.4-9.5c1.5-0.6,3.9,0.7,2.2,1.5c-0.9,0.4-0.2,2.3,2.4,4.3c3.7,2.8,10.5,5,17.7,6.3c-2.1-0.5-4.2-1.1-6.3-1.8
		c-11.7-4.3-9.7-7.3-8.4-7.7c1.2-0.5,3.1,0.6,1.8,1.2c-0.7,0.4-0.2,1.9,2,3.5c4.2,3.2,13.6,5.4,21.8,6.1c1.7,0.1,3.5,0.1,5.2,0.2
		c-0.2,0-0.4,0-0.4,0c0.2,0,0.4,0,0.6,0L53.5,81.7L53.5,81.7L53.5,81.7L53.5,81.7L53.5,81.7L53.5,81.7z M53.5,25.5
		c-0.3-0.1-0.7-0.3-1-0.5c0.3,0.1,0.6,0.1,1,0.1l0.1,0l0.1,0c0.3,0,0.6,0,1-0.1C54.1,25.2,53.8,25.4,53.5,25.5z M57.8,21.3
		c-1.1,2-2.6,3.3-4.3,3.3s-3.1-1.5-4.4-3.4c-0.5-0.7-1.5-0.4-1.4,0.1c0.6,1.7,2.2,2.8,3.6,3.4h-0.4c-0.2,0.1-0.4,0.1-0.7,0.2
		c-1.9-1.5-3.3-3-3.9-4.3c-0.4-1.1-0.3-1.9,0.1-2.4c0.5-0.7,0.4-1.7-0.4-1.8c-1.9-0.3-4.6,1.6,2.5,7.7c0.4,0.3,0.7,0.6,1.1,0.9
		c-0.1,0-0.3,0-0.4,0.1c-4.3-2.8-7.5-5.6-8.4-8c-0.9-2.2,0.1-3.6,1.4-3.5c2.5,0.2,1.2-1.5-0.9-1.7c-2.1-0.3-8,0.8,2,9.4
		c-0.5,0.2-1.4,0.3-2.7-0.3c-4.9-2.3-7.7-7.1-14.5-6.2C42.9,1.7,64.3,2,80.8,14.7c-6.8-0.9-9.6,3.9-14.5,6.2
		c-1.3,0.6-2.2,0.5-2.7,0.3c9.9-8.6,4.1-9.7,2-9.4c-2.1,0.3-3.3,1.9-0.9,1.7c1.3-0.1,2.3,1.2,1.4,3.5c-1,2.3-4.2,5.2-8.4,8
		c-0.1,0-0.3,0-0.4-0.1c0.4-0.3,0.8-0.6,1.1-0.9c7.2-6.2,4.3-8,2.4-7.7c-0.9,0.1-0.9,1.1-0.4,1.8c0.4,0.5,0.5,1.3,0.1,2.4
		c-0.5,1.3-1.9,2.8-3.9,4.3c-0.2-0.1-0.5-0.1-0.7-0.2h-0.4c1.4-0.6,3.1-1.5,3.5-3.3C59.3,20.5,58.2,20.6,57.8,21.3z M36.9,6.5
		c-2.4,1-4.6,2.3-6.8,3.6c-4.3,2.8-5.9,5-10.6,7.4c-1.8,0.9-3.2,1.4-3.3,0.2c-2.9-3.1-6.4,2.1-2.7,3.2c4.7,1.3,8.5-3.4,11.8-5.1
		c1-0.5,2.3-0.9,3.9-0.8c3.5,0.3,6.8,3.4,9.2,5.5c2.6,2.4,5.5,5.2,8.6,6c2,0.5,4.3,0.4,6.4-0.5c2.1,0.8,4.4,1,6.4,0.5
		c3.2-0.9,6-3.6,8.6-6c2.3-2.1,5.7-5.2,9.2-5.5c1.6-0.2,3,0.3,3.9,0.8c3.3,1.7,7.1,6.4,11.8,5.1c3.6-1,0.2-6.3-2.7-3.2
		c-0.1,1.1-1.5,0.7-3.3-0.2c-4.7-2.4-6.3-4.6-10.6-7.4c-2.1-1.4-4.4-2.6-6.8-3.6C58.9,1.6,48.1,1.6,36.9,6.5z"/>
</g>
</svg>
