<?xml version="1.0" encoding="UTF-8"?>
<svg xmlns="http://www.w3.org/2000/svg" version="1.1" viewBox="0 0 106.5 86.2">
  <!-- Generator: Adobe Illustrator 29.1.0, SVG Export Plug-In . SVG Version: 2.1.0 Build 142)  -->
  <defs>
    <style>
      .st0, .st1 {
        fill: #781214;
      }

      .st1, .st2 {
        fill-rule: evenodd;
      }

      .st3 {
        display: none;
      }

      .st2, .st4 {
        fill: #efd1a8;
      }
    </style>
  </defs>
  <g id="Red">
    <g>
      <g>
        <path class="st0" d="M11.9,38c-.6-.3-1.3-.4-1.9-.4-2.4,0-4.6,1.7-4.6,4.3s2.5,5.5,7.4,5.5c.1-7.2,4.4-16.1,11.2-16.1s4.6,2,4.6,4.6c0,4.7-4.7,11.4-13.3,12.4,0,3.5.8,6.3,3.1,6.8-.1-.5-.2-1.1-.2-1.6,0-3.3,1.8-6.6,5.1-6.6s3.3,1.5,3.3,3.4-1.9,5.3-5.8,5.9c.6,1.2,1.7,2.1,3.1,2.4l-.7,1.6c-2.3-.4-3.8-2-4.5-3.9-3.8-.3-5.6-3.7-5.9-7.9-6.3,0-9.7-3.2-9.7-6.8s3.3-6.1,6.8-6.1,3,.6,3,.6l-1,1.9ZM15.4,47.3c7.3-1.2,10.9-7.6,10.9-11.6s-.8-3.1-2.3-3.1c-4.5,0-8.1,8.1-8.6,14.7ZM20.1,53c0,.8.1,1.5.3,2.3,2.8-.6,4.3-3.3,4.3-5.2s-.5-1.9-1.6-1.9c-1.9,0-3,2.3-3,4.8Z"/>
        <path class="st0" d="M34.6,41.1h1.9c-.8,3-1.3,5.4-1.7,7.6v.6c0,.3,0,.5.2.5.3,0,1.4-1.1,2.7-3.8.2,0,.7.2.7.3-1.6,3.6-2.9,5.1-4.1,5.1s-1.3-.6-1.3-2.2v-.2c-.6,1.4-1.5,2.5-3.1,2.5s-1.8-1.2-1.8-2.8c0-3.1,2-7.8,4.5-7.8s1.5.5,1.7,1.5l.4-1.3h-.1ZM30.3,48.4c0,.7.2,1.2.6,1.2,1.2,0,2.4-3.6,2.7-5.7s-.5-1.6-1-1.6c-1.2.2-2.3,4.1-2.3,6.1Z"/>
        <path class="st0" d="M41.3,49.7c.6,0,1.5-1.2,2.7-3.7,0,0,.7.2.7.3h0c-1.2,2.5-2.1,5.1-4.2,5.1s-1.7-.7-1.7-1.7,1.2-3,1.2-4.2-.2-1.2-.5-1.6l-1.1,2.4s-.7,0-.7-.3h0c.5-1.1.8-2.2,1.1-3.3-.3-.5-.5-1.1-.5-1.9s.2-1.6.6-2.8l2,.5c0,1.5-.3,2.5-.7,3.7.9.8,2,1.6,2,2.9s-1.2,3.3-1.2,4.1,0,.5.3.5Z"/>
        <path class="st0" d="M51.6,33.7h2.1c0,1.9-1.1,6.5-2.2,10.2-.5,2.4-.7,3.8-.7,4.5s0,.6.3.6c.6,0,1.4-1.3,2.2-3.1.2,0,.7.2.7.3-1.6,3.6-3.1,5.1-4.3,5.1s-1.3-.6-1.3-2.2v-.2c-.6,1.4-1.5,2.5-3,2.5s-1.8-1.2-1.8-2.8c0-3.1,2-7.8,4.5-7.8s1.5.5,1.7,1.5c0,0,1.8-8.6,1.8-8.6ZM45.8,48.4c0,.7.2,1.2.5,1.2,1.2,0,2.7-3.6,2.7-5.7s-.4-1.7-1-1.6c-1.5.3-2.2,4.1-2.2,6.1Z"/>
        <path class="st0" d="M56.8,41.1c-.9,3.5-1.7,6.1-1.7,7.9s.8,1.1,1.1.7c.6-.7.9-1.1,2-3.7,0,0,.7.2.7.3h0c-1.2,2.5-2.1,5.1-4.2,5.1s-1.9-1.1-1.9-2.7c0-2.5,1.2-6,1.6-7.6h2.3ZM54.8,38.7c0-.8.7-1.8,1.8-1.8s1.2.5,1.2,1.2-.7,1.7-1.8,1.7-1.2-.5-1.2-1.1Z"/>
        <path class="st0" d="M67.7,46.2c-.6,1.3-1.8,2.3-3.1,2.7-.9,1.6-2.2,2.6-3.9,2.6s-2.6-1.6-2.6-3.6.3-2.7.8-4l.9.2c.3-1.7,1.4-3.2,3.3-3.2s2.7,1.7,2.7,3.7-.3,2.2-.7,3.2c.7-.3,1.3-.8,1.8-1.9.2,0,.8.2.8.3ZM62.2,48.9c-1.1-.4-1.8-1.2-2.2-2.3v1c0,1.3.4,2.2,1.1,2.2h.2c.4,0,.7-.5,1-.9h0ZM61.2,45.3c0,1.2.4,2.4,1.6,2.7.6-1.2,1-2.7,1-3.9s-.3-1.8-1-1.8h-.2c-.8,0-1.4,1.6-1.4,3Z"/>
        <path class="st0" d="M72.9,45.8s.6.3.6.4h0c-1.6,3.6-2.8,5.2-4.5,5.2s-2.2-1.3-2.2-3.6.3-3.8.8-6.3c1.2-5.6,2.8-8.1,4.4-8.1s1.8.9,1.8,2.1-.5,2.9-.8,3.6c-1.1,2.9-2.8,5.1-3.9,6.2,0,1-.2,1.8-.2,2.5,0,1.5.4,2,1,2,.9,0,1.9-1.5,3-4ZM72.4,34.9c-.7,0-2.3,4.8-3,9,1.3-2,3.3-5.7,3.3-8.5s-.2-.5-.3-.5Z"/>
        <path class="st0" d="M82.3,46.2c-.6,1.3-1.8,2.3-3.1,2.7-.9,1.6-2.2,2.6-3.9,2.6s-2.6-1.6-2.6-3.6.3-2.7.8-4l.9.2c.3-1.7,1.4-3.2,3.3-3.2s2.7,1.7,2.7,3.7-.3,2.2-.7,3.2c.7-.3,1.3-.8,1.8-1.9.2,0,.8.2.8.3h0ZM76.8,48.9c-1.1-.4-1.8-1.2-2.2-2.3v1c0,1.3.4,2.2,1.1,2.2h.2c.4,0,.7-.5,1-.9h0ZM75.8,45.3c0,1.2.4,2.4,1.6,2.7.6-1.2,1-2.7,1-3.9s-.3-1.8-1-1.8h-.2c-.8,0-1.4,1.6-1.4,3Z"/>
        <path class="st0" d="M91.1,46.2h0c-1,2.2-2.4,3.8-3.9,5l-.6,2.9c-.4,2.2-1.4,3.9-3.1,3.9s-2-.6-2-1.8,1.7-2.8,3.6-4.4c.2-.7.3-1.4.4-2.1-.7,1-1.5,1.7-2.6,1.7s-1.8-1.2-1.8-2.8c0-3.1,2-7.7,4.5-7.8s1.3.4,1.4,1.2l.2-1h2.2c-.3,1-1.2,5.1-1.9,8.7,1.1-1.1,2.1-2.3,2.8-3.8.3,0,.8.2.8.3ZM83.5,56.8c.4,0,.7-.4.8-1.1l.5-2.4c-1.1,1-1.9,1.8-1.9,2.9s.3.6.6.6ZM83.3,48.4c0,.7.2,1.2.6,1.2,1.2,0,2.7-3.6,2.7-5.7s-.5-1.7-1-1.5c-1.2.5-2.3,4-2.3,6Z"/>
        <path class="st0" d="M93.8,41.1c-.9,3.5-1.7,6.1-1.7,7.9s.6,1.2.7,1c.6-.7,1.5-1.5,2.6-4.1,0,0,.6.3.6.4h0c-1.2,2.5-2.1,5.1-4.2,5.1s-1.9-1.1-1.9-2.7c0-2.5,1.2-6,1.6-7.6h2.3ZM91.9,38.7c0-.8.7-1.8,1.8-1.8s1.2.5,1.2,1.2-.7,1.7-1.8,1.7-1.2-.5-1.2-1.1Z"/>
        <path class="st0" d="M102.9,45.9c.2,0,.7.2.7.3-1.3,2.9-2.6,5.2-5.2,5.2s-3.2-1.8-3.2-3.9c0-3,2-6.6,4.9-6.7s2,.8,2,1.8c0,1.6-1.6,3.7-4.7,4.1v.3c0,1.3.4,2.4,1.7,2.4,1.5.2,2.8-1.2,3.8-3.5ZM97.5,46c2-.8,2.8-2.4,2.8-3.2s-.2-.6-.4-.6c-1.1,0-2.1,1.9-2.4,3.8Z"/>
      </g>
      <path class="st1" d="M51.4,25.1c-.3.2-.7.3-1.1.3-1.6.2-2.8,0-2.8,0,0,0,2.2,1.3,5.2.4-.4-.2-.9-.5-1.3-.7M43.7,21.6c1.4,1.2,3,2.4,4.7,3.4h-.5c-3.3.1-4.1-2.3-4.2-3.4ZM55.5,25.1c.3.2.7.3,1.1.3,1.6.2,2.8,0,2.8,0,0,0-2.2,1.3-5.2.4.4-.2.9-.5,1.3-.7ZM63.2,21.6c-1.4,1.2-3,2.4-4.7,3.4h.5c3.4.1,4.1-2.3,4.2-3.4ZM53.5,81.7h1.1-.4c1.7,0,3.5,0,5.2-.2,8.2-.7,17.6-2.8,21.8-6.1,2.2-1.7,2.7-3.2,2-3.5-1.4-.7.5-1.7,1.8-1.2,1.2.5,3.3,3.4-8.4,7.7-2.1.8-4.2,1.4-6.3,1.8,7.2-1.3,14-3.5,17.7-6.3,2.7-2,3.3-3.9,2.4-4.3-1.7-.8.6-2.1,2.2-1.5,1.5.6,4.1,4.2-10.4,9.5-3.7,1.4-7.5,2.3-11.1,2.9h0s0,1.4-8.7,2.4c-3,.3-6,.5-9,.5h0c-3,0-6-.2-9-.5-8.7-1-8.7-2.3-8.7-2.3h0c-3.6-.7-7.3-1.7-11.1-3-14.4-5.3-11.9-8.9-10.4-9.5s3.9.7,2.2,1.5c-.9.4-.2,2.3,2.4,4.3,3.7,2.8,10.5,5,17.7,6.3-2.1-.5-4.2-1.1-6.3-1.8-11.7-4.3-9.7-7.3-8.4-7.7,1.2-.5,3.1.6,1.8,1.2-.7.4-.2,1.9,2,3.5,4.2,3.2,13.6,5.4,21.8,6.1,1.7,0,3.5,0,5.2.2h-.4,1.3ZM53.5,25.5c-.3-.1-.7-.3-1-.5.3.1.6.1,1,.1h.2c.3,0,.6,0,1-.1-.6.2-.9.4-1.2.5ZM57.8,21.3c-1.1,2-2.6,3.3-4.3,3.3s-3.1-1.5-4.4-3.4c-.5-.7-1.5-.4-1.4.1.6,1.7,2.2,2.8,3.6,3.4h-.4c-.2.1-.4.1-.7.2-1.9-1.5-3.3-3-3.9-4.3-.4-1.1-.3-1.9,0-2.4.5-.7.4-1.7-.4-1.8-1.9-.3-4.6,1.6,2.5,7.7.4.3.7.6,1.1.9,0,0-.3,0-.4.1-4.3-2.8-7.5-5.6-8.4-8-.9-2.2,0-3.6,1.4-3.5,2.5.2,1.2-1.5-.9-1.7-2.1-.3-8,.8,2,9.4-.5.2-1.4.3-2.7-.3-4.9-2.3-7.7-7.1-14.5-6.2,16.8-13.1,38.2-12.8,54.7-.1-6.8-.9-9.6,3.9-14.5,6.2-1.3.6-2.2.5-2.7.3,9.9-8.6,4.1-9.7,2-9.4s-3.3,1.9-.9,1.7c1.3-.1,2.3,1.2,1.4,3.5-1,2.3-4.2,5.2-8.4,8,0,0-.3,0-.4-.1.4-.3.8-.6,1.1-.9,7.2-6.2,4.3-8,2.4-7.7-.9.1-.9,1.1-.4,1.8.4.5.5,1.3,0,2.4-.5,1.3-1.9,2.8-3.9,4.3-.2-.1-.5-.1-.7-.2h-.4c1.4-.6,3.1-1.5,3.5-3.3.3-.8-.8-.7-1.2,0h.2ZM36.9,6.5c-2.4,1-4.6,2.3-6.8,3.6-4.3,2.8-5.9,5-10.6,7.4-1.8.9-3.2,1.4-3.3.2-2.9-3.1-6.4,2.1-2.7,3.2,4.7,1.3,8.5-3.4,11.8-5.1,1-.5,2.3-.9,3.9-.8,3.5.3,6.8,3.4,9.2,5.5,2.6,2.4,5.5,5.2,8.6,6,2,.5,4.3.4,6.4-.5,2.1.8,4.4,1,6.4.5,3.2-.9,6-3.6,8.6-6,2.3-2.1,5.7-5.2,9.2-5.5,1.6-.2,3,.3,3.9.8,3.3,1.7,7.1,6.4,11.8,5.1,3.6-1,.2-6.3-2.7-3.2,0,1.1-1.5.7-3.3-.2-4.7-2.4-6.3-4.6-10.6-7.4-2.1-1.4-4.4-2.6-6.8-3.6-11-4.9-21.8-4.9-33,0Z"/>
    </g>
    <g>
      <path class="st0" d="M28.6,60.2l.5,1.8c.1.4.2.8.3,1.1h0c0-.4.2-.7.3-1.1l.6-1.8h.5l.5,1.8c.1.4.2.8.3,1.1h0c0-.4.2-.7.3-1.1l.5-1.8h.6l-1.1,3.5h-.6l-.5-1.7c-.1-.4-.2-.7-.3-1.2h0c0,.4-.2.8-.3,1.2l-.6,1.7h-.6l-1.1-3.5h.7Z"/>
      <path class="st0" d="M34,60.2l.5,1.8c.1.4.2.8.3,1.1h0c0-.4.2-.7.3-1.1l.6-1.8h.5l.5,1.8c.1.4.2.8.3,1.1h0c0-.4.2-.7.3-1.1l.5-1.8h.6l-1.1,3.5h-.6l-.5-1.7c-.1-.4-.2-.7-.3-1.2h0c0,.4-.2.8-.3,1.2l-.6,1.7h-.6l-1.1-3.5h.7Z"/>
      <path class="st0" d="M39.4,60.2l.5,1.8c.1.4.2.8.3,1.1h0c0-.4.2-.7.3-1.1l.6-1.8h.5l.5,1.8c.1.4.2.8.3,1.1h0c0-.4.2-.7.3-1.1l.5-1.8h.6l-1.1,3.5h-.6l-.5-1.7c-.1-.4-.2-.7-.3-1.2h0c0,.4-.2.8-.3,1.2l-.6,1.7h-.6l-1.1-3.5h.7Z"/>
      <path class="st0" d="M44.1,63.3c0-.3.2-.5.4-.5s.4.2.4.5-.2.5-.4.5-.4-.2-.4-.5Z"/>
      <path class="st0" d="M45.7,61.1c0-.4,0-.7,0-.9h.6v.6h0c.2-.3.5-.6,1.1-.6s.8.3,1,.7h0c.1-.2.2-.3.4-.5.2-.2.4-.2.8-.2s1.2.3,1.2,1.5v2.1h-.6v-2c0-.7-.2-1.1-.8-1.1s-.6.3-.8.6c0,0,0,.2,0,.3v2.2h-.6v-2.1c0-.6-.2-1-.7-1s-.7.3-.8.6c0,0,0,.2,0,.3v2.1h-.6v-2.6Z"/>
      <path class="st0" d="M52.1,62c0,.9.6,1.2,1.2,1.2s.7,0,1-.2v.5c-.1.1-.5.2-1.1.2-1.1,0-1.7-.7-1.7-1.8s.6-1.9,1.6-1.9,1.4,1,1.4,1.7,0,.2,0,.3h-2.5ZM54,61.6c0-.4-.2-1-.9-1s-.9.6-1,1h1.9Z"/>
      <path class="st0" d="M58.4,58.5v4.2c0,.3,0,.7,0,.9h-.6v-.6h0c-.2.4-.6.7-1.2.7-.8,0-1.5-.7-1.5-1.8,0-1.2.7-1.9,1.6-1.9s.9.3,1.1.5h0v-2.1h.6ZM57.8,61.6c0,0,0-.2,0-.3,0-.4-.4-.7-.9-.7s-1.1.6-1.1,1.4.3,1.3,1,1.3.8-.3.9-.8c0,0,0-.2,0-.3v-.6Z"/>
      <path class="st0" d="M60.2,59.2c0,.2-.2.4-.4.4s-.4-.2-.4-.4.2-.4.4-.4.4.2.4.4ZM59.5,63.7v-3.5h.6v3.5h-.6Z"/>
      <path class="st0" d="M61.2,61.3c0-.4,0-.8,0-1.1h.6v.6h0c.3-.4.7-.7,1.2-.7.8,0,1.5.7,1.5,1.8s-.8,1.9-1.6,1.9-.9-.2-1.1-.6h0v1.9h-.6v-3.8ZM61.8,62.2c0,0,0,.2,0,.3.1.4.5.7,1,.7.7,0,1.1-.6,1.1-1.4s-.4-1.3-1-1.3-.8.3-1,.8c0,0,0,.2,0,.3v.6Z"/>
      <path class="st0" d="M65.3,61.2c0-.4,0-.8,0-1.1h.6v.7h0c.2-.5.5-.8,1-.8s.1,0,.2,0v.6c0,0-.1,0-.2,0-.4,0-.8.3-.9.8,0,0,0,.2,0,.3v1.9h-.6v-2.4Z"/>
      <path class="st0" d="M70.8,61.9c0,1.3-.9,1.9-1.7,1.9s-1.7-.7-1.7-1.8.8-1.9,1.7-1.9,1.7.7,1.7,1.8ZM68,61.9c0,.8.4,1.3,1.1,1.3s1.1-.6,1.1-1.4-.3-1.3-1.1-1.3-1.1.7-1.1,1.4Z"/>
      <path class="st0" d="M71.3,63.3c0-.3.2-.5.4-.5s.4.2.4.5-.2.5-.4.5-.4-.2-.4-.5Z"/>
      <path class="st0" d="M72.9,61.2c0-.4,0-.8,0-1.1h.6v.7h0c.2-.5.5-.8,1-.8s.1,0,.2,0v.6c0,0-.1,0-.2,0-.4,0-.8.3-.9.8,0,0,0,.2,0,.3v1.9h-.6v-2.4Z"/>
      <path class="st0" d="M78.4,61.9c0,1.3-.9,1.9-1.7,1.9s-1.7-.7-1.7-1.8.8-1.9,1.7-1.9,1.7.7,1.7,1.8ZM75.6,61.9c0,.8.4,1.3,1.1,1.3s1.1-.6,1.1-1.4-.3-1.3-1.1-1.3-1.1.7-1.1,1.4Z"/>
    </g>
  </g>
  <g id="Cream" class="st3">
    <g>
      <g>
        <path class="st4" d="M11.9,38c-.6-.3-1.3-.4-1.9-.4-2.4,0-4.6,1.7-4.6,4.3s2.5,5.5,7.4,5.5c.1-7.2,4.4-16.1,11.2-16.1s4.6,2,4.6,4.6c0,4.7-4.7,11.4-13.3,12.4,0,3.5.8,6.3,3.1,6.8-.1-.5-.2-1.1-.2-1.6,0-3.3,1.8-6.6,5.1-6.6s3.3,1.5,3.3,3.4-1.9,5.3-5.8,5.9c.6,1.2,1.7,2.1,3.1,2.4l-.7,1.6c-2.3-.4-3.8-2-4.5-3.9-3.8-.3-5.6-3.7-5.9-7.9-6.3,0-9.7-3.2-9.7-6.8s3.3-6.1,6.8-6.1,3,.6,3,.6l-1,1.9ZM15.4,47.3c7.3-1.2,10.9-7.6,10.9-11.6s-.8-3.1-2.3-3.1c-4.5,0-8.1,8.1-8.6,14.7ZM20.1,53c0,.8.1,1.5.3,2.3,2.8-.6,4.3-3.3,4.3-5.2s-.5-1.9-1.6-1.9c-1.9,0-3,2.3-3,4.8Z"/>
        <path class="st4" d="M34.6,41.1h1.9c-.8,3-1.3,5.4-1.7,7.6v.6c0,.3,0,.5.2.5.3,0,1.4-1.1,2.7-3.8.2,0,.7.2.7.3-1.6,3.6-2.9,5.1-4.1,5.1s-1.3-.6-1.3-2.2v-.2c-.6,1.4-1.5,2.5-3.1,2.5s-1.8-1.2-1.8-2.8c0-3.1,2-7.8,4.5-7.8s1.5.5,1.7,1.5l.4-1.3h-.1ZM30.3,48.4c0,.7.2,1.2.6,1.2,1.2,0,2.4-3.6,2.7-5.7s-.5-1.6-1-1.6c-1.2.2-2.3,4.1-2.3,6.1Z"/>
        <path class="st4" d="M41.3,49.7c.6,0,1.5-1.2,2.7-3.7,0,0,.7.2.7.3h0c-1.2,2.5-2.1,5.1-4.2,5.1s-1.7-.7-1.7-1.7,1.2-3,1.2-4.2-.2-1.2-.5-1.6l-1.1,2.4s-.7,0-.7-.3h0c.5-1.1.8-2.2,1.1-3.3-.3-.5-.5-1.1-.5-1.9s.2-1.6.6-2.8l2,.5c0,1.5-.3,2.5-.7,3.7.9.8,2,1.6,2,2.9s-1.2,3.3-1.2,4.1,0,.5.3.5Z"/>
        <path class="st4" d="M51.6,33.7h2.1c0,1.9-1.1,6.5-2.2,10.2-.5,2.4-.7,3.8-.7,4.5s0,.6.3.6c.6,0,1.4-1.3,2.2-3.1.2,0,.7.2.7.3-1.6,3.6-3.1,5.1-4.3,5.1s-1.3-.6-1.3-2.2v-.2c-.6,1.4-1.5,2.5-3,2.5s-1.8-1.2-1.8-2.8c0-3.1,2-7.8,4.5-7.8s1.5.5,1.7,1.5c0,0,1.8-8.6,1.8-8.6ZM45.8,48.4c0,.7.2,1.2.5,1.2,1.2,0,2.7-3.6,2.7-5.7s-.4-1.7-1-1.6c-1.5.3-2.2,4.1-2.2,6.1Z"/>
        <path class="st4" d="M56.8,41.1c-.9,3.5-1.7,6.1-1.7,7.9s.8,1.1,1.1.7c.6-.7.9-1.1,2-3.7,0,0,.7.2.7.3h0c-1.2,2.5-2.1,5.1-4.2,5.1s-1.9-1.1-1.9-2.7c0-2.5,1.2-6,1.6-7.6h2.3ZM54.8,38.7c0-.8.7-1.8,1.8-1.8s1.2.5,1.2,1.2-.7,1.7-1.8,1.7-1.2-.5-1.2-1.1Z"/>
        <path class="st4" d="M67.7,46.2c-.6,1.3-1.8,2.3-3.1,2.7-.9,1.6-2.2,2.6-3.9,2.6s-2.6-1.6-2.6-3.6.3-2.7.8-4l.9.2c.3-1.7,1.4-3.2,3.3-3.2s2.7,1.7,2.7,3.7-.3,2.2-.7,3.2c.7-.3,1.3-.8,1.8-1.9.2,0,.8.2.8.3ZM62.2,48.9c-1.1-.4-1.8-1.2-2.2-2.3v1c0,1.3.4,2.2,1.1,2.2h.2c.4,0,.7-.5,1-.9h0ZM61.2,45.3c0,1.2.4,2.4,1.6,2.7.6-1.2,1-2.7,1-3.9s-.3-1.8-1-1.8h-.2c-.8,0-1.4,1.6-1.4,3Z"/>
        <path class="st4" d="M72.9,45.8s.6.3.6.4h0c-1.6,3.6-2.8,5.2-4.5,5.2s-2.2-1.3-2.2-3.6.3-3.8.8-6.3c1.2-5.6,2.8-8.1,4.4-8.1s1.8.9,1.8,2.1-.5,2.9-.8,3.6c-1.1,2.9-2.8,5.1-3.9,6.2,0,1-.2,1.8-.2,2.5,0,1.5.4,2,1,2,.9,0,1.9-1.5,3-4ZM72.4,34.9c-.7,0-2.3,4.8-3,9,1.3-2,3.3-5.7,3.3-8.5s-.2-.5-.3-.5Z"/>
        <path class="st4" d="M82.3,46.2c-.6,1.3-1.8,2.3-3.1,2.7-.9,1.6-2.2,2.6-3.9,2.6s-2.6-1.6-2.6-3.6.3-2.7.8-4l.9.2c.3-1.7,1.4-3.2,3.3-3.2s2.7,1.7,2.7,3.7-.3,2.2-.7,3.2c.7-.3,1.3-.8,1.8-1.9.2,0,.8.2.8.3h0ZM76.8,48.9c-1.1-.4-1.8-1.2-2.2-2.3v1c0,1.3.4,2.2,1.1,2.2h.2c.4,0,.7-.5,1-.9h0ZM75.8,45.3c0,1.2.4,2.4,1.6,2.7.6-1.2,1-2.7,1-3.9s-.3-1.8-1-1.8h-.2c-.8,0-1.4,1.6-1.4,3Z"/>
        <path class="st4" d="M91.1,46.2h0c-1,2.2-2.4,3.8-3.9,5l-.6,2.9c-.4,2.2-1.4,3.9-3.1,3.9s-2-.6-2-1.8,1.7-2.8,3.6-4.4c.2-.7.3-1.4.4-2.1-.7,1-1.5,1.7-2.6,1.7s-1.8-1.2-1.8-2.8c0-3.1,2-7.7,4.5-7.8s1.3.4,1.4,1.2l.2-1h2.2c-.3,1-1.2,5.1-1.9,8.7,1.1-1.1,2.1-2.3,2.8-3.8.3,0,.8.2.8.3ZM83.5,56.8c.4,0,.7-.4.8-1.1l.5-2.4c-1.1,1-1.9,1.8-1.9,2.9s.3.6.6.6ZM83.3,48.4c0,.7.2,1.2.6,1.2,1.2,0,2.7-3.6,2.7-5.7s-.5-1.7-1-1.5c-1.2.5-2.3,4-2.3,6Z"/>
        <path class="st4" d="M93.8,41.1c-.9,3.5-1.7,6.1-1.7,7.9s.6,1.2.7,1c.6-.7,1.5-1.5,2.6-4.1,0,0,.6.3.6.4h0c-1.2,2.5-2.1,5.1-4.2,5.1s-1.9-1.1-1.9-2.7c0-2.5,1.2-6,1.6-7.6h2.3ZM91.9,38.7c0-.8.7-1.8,1.8-1.8s1.2.5,1.2,1.2-.7,1.7-1.8,1.7-1.2-.5-1.2-1.1Z"/>
        <path class="st4" d="M102.9,45.9c.2,0,.7.2.7.3-1.3,2.9-2.6,5.2-5.2,5.2s-3.2-1.8-3.2-3.9c0-3,2-6.6,4.9-6.7s2,.8,2,1.8c0,1.6-1.6,3.7-4.7,4.1v.3c0,1.3.4,2.4,1.7,2.4,1.5.2,2.8-1.2,3.8-3.5ZM97.5,46c2-.8,2.8-2.4,2.8-3.2s-.2-.6-.4-.6c-1.1,0-2.1,1.9-2.4,3.8Z"/>
      </g>
      <path class="st2" d="M51.4,25.1c-.3.2-.7.3-1.1.3-1.6.2-2.8,0-2.8,0,0,0,2.2,1.3,5.2.4-.4-.2-.9-.5-1.3-.7M43.7,21.6c1.4,1.2,3,2.4,4.7,3.4h-.5c-3.3.1-4.1-2.3-4.2-3.4ZM55.5,25.1c.3.2.7.3,1.1.3,1.6.2,2.8,0,2.8,0,0,0-2.2,1.3-5.2.4.4-.2.9-.5,1.3-.7ZM63.2,21.6c-1.4,1.2-3,2.4-4.7,3.4h.5c3.4.1,4.1-2.3,4.2-3.4ZM53.5,81.7h1.1-.4c1.7,0,3.5,0,5.2-.2,8.2-.7,17.6-2.8,21.8-6.1,2.2-1.7,2.7-3.2,2-3.5-1.4-.7.5-1.7,1.8-1.2,1.2.5,3.3,3.4-8.4,7.7-2.1.8-4.2,1.4-6.3,1.8,7.2-1.3,14-3.5,17.7-6.3,2.7-2,3.3-3.9,2.4-4.3-1.7-.8.6-2.1,2.2-1.5,1.5.6,4.1,4.2-10.4,9.5-3.7,1.4-7.5,2.3-11.1,2.9h0s0,1.4-8.7,2.4c-3,.3-6,.5-9,.5h0c-3,0-6-.2-9-.5-8.7-1-8.7-2.3-8.7-2.3h0c-3.6-.7-7.3-1.7-11.1-3-14.4-5.3-11.9-8.9-10.4-9.5s3.9.7,2.2,1.5c-.9.4-.2,2.3,2.4,4.3,3.7,2.8,10.5,5,17.7,6.3-2.1-.5-4.2-1.1-6.3-1.8-11.7-4.3-9.7-7.3-8.4-7.7,1.2-.5,3.1.6,1.8,1.2-.7.4-.2,1.9,2,3.5,4.2,3.2,13.6,5.4,21.8,6.1,1.7,0,3.5,0,5.2.2h-.4,1.3ZM53.5,25.5c-.3-.1-.7-.3-1-.5.3.1.6.1,1,.1h.2c.3,0,.6,0,1-.1-.6.2-.9.4-1.2.5ZM57.8,21.3c-1.1,2-2.6,3.3-4.3,3.3s-3.1-1.5-4.4-3.4c-.5-.7-1.5-.4-1.4.1.6,1.7,2.2,2.8,3.6,3.4h-.4c-.2.1-.4.1-.7.2-1.9-1.5-3.3-3-3.9-4.3-.4-1.1-.3-1.9,0-2.4.5-.7.4-1.7-.4-1.8-1.9-.3-4.6,1.6,2.5,7.7.4.3.7.6,1.1.9,0,0-.3,0-.4.1-4.3-2.8-7.5-5.6-8.4-8-.9-2.2,0-3.6,1.4-3.5,2.5.2,1.2-1.5-.9-1.7-2.1-.3-8,.8,2,9.4-.5.2-1.4.3-2.7-.3-4.9-2.3-7.7-7.1-14.5-6.2,16.8-13.1,38.2-12.8,54.7-.1-6.8-.9-9.6,3.9-14.5,6.2-1.3.6-2.2.5-2.7.3,9.9-8.6,4.1-9.7,2-9.4s-3.3,1.9-.9,1.7c1.3-.1,2.3,1.2,1.4,3.5-1,2.3-4.2,5.2-8.4,8,0,0-.3,0-.4-.1.4-.3.8-.6,1.1-.9,7.2-6.2,4.3-8,2.4-7.7-.9.1-.9,1.1-.4,1.8.4.5.5,1.3,0,2.4-.5,1.3-1.9,2.8-3.9,4.3-.2-.1-.5-.1-.7-.2h-.4c1.4-.6,3.1-1.5,3.5-3.3.3-.8-.8-.7-1.2,0h.2ZM36.9,6.5c-2.4,1-4.6,2.3-6.8,3.6-4.3,2.8-5.9,5-10.6,7.4-1.8.9-3.2,1.4-3.3.2-2.9-3.1-6.4,2.1-2.7,3.2,4.7,1.3,8.5-3.4,11.8-5.1,1-.5,2.3-.9,3.9-.8,3.5.3,6.8,3.4,9.2,5.5,2.6,2.4,5.5,5.2,8.6,6,2,.5,4.3.4,6.4-.5,2.1.8,4.4,1,6.4.5,3.2-.9,6-3.6,8.6-6,2.3-2.1,5.7-5.2,9.2-5.5,1.6-.2,3,.3,3.9.8,3.3,1.7,7.1,6.4,11.8,5.1,3.6-1,.2-6.3-2.7-3.2,0,1.1-1.5.7-3.3-.2-4.7-2.4-6.3-4.6-10.6-7.4-2.1-1.4-4.4-2.6-6.8-3.6-11-4.9-21.8-4.9-33,0Z"/>
    </g>
    <g>
      <path class="st4" d="M28.6,60.2l.5,1.8c.1.4.2.8.3,1.1h0c0-.4.2-.7.3-1.1l.6-1.8h.5l.5,1.8c.1.4.2.8.3,1.1h0c0-.4.2-.7.3-1.1l.5-1.8h.6l-1.1,3.5h-.6l-.5-1.7c-.1-.4-.2-.7-.3-1.2h0c0,.4-.2.8-.3,1.2l-.6,1.7h-.6l-1.1-3.5h.7Z"/>
      <path class="st4" d="M34,60.2l.5,1.8c.1.4.2.8.3,1.1h0c0-.4.2-.7.3-1.1l.6-1.8h.5l.5,1.8c.1.4.2.8.3,1.1h0c0-.4.2-.7.3-1.1l.5-1.8h.6l-1.1,3.5h-.6l-.5-1.7c-.1-.4-.2-.7-.3-1.2h0c0,.4-.2.8-.3,1.2l-.6,1.7h-.6l-1.1-3.5h.7Z"/>
      <path class="st4" d="M39.4,60.2l.5,1.8c.1.4.2.8.3,1.1h0c0-.4.2-.7.3-1.1l.6-1.8h.5l.5,1.8c.1.4.2.8.3,1.1h0c0-.4.2-.7.3-1.1l.5-1.8h.6l-1.1,3.5h-.6l-.5-1.7c-.1-.4-.2-.7-.3-1.2h0c0,.4-.2.8-.3,1.2l-.6,1.7h-.6l-1.1-3.5h.7Z"/>
      <path class="st4" d="M44.1,63.3c0-.3.2-.5.4-.5s.4.2.4.5-.2.5-.4.5-.4-.2-.4-.5Z"/>
      <path class="st4" d="M45.7,61.1c0-.4,0-.7,0-.9h.6v.6h0c.2-.3.5-.6,1.1-.6s.8.3,1,.7h0c.1-.2.2-.3.4-.5.2-.2.4-.2.8-.2s1.2.3,1.2,1.5v2.1h-.6v-2c0-.7-.2-1.1-.8-1.1s-.6.3-.8.6c0,0,0,.2,0,.3v2.2h-.6v-2.1c0-.6-.2-1-.7-1s-.7.3-.8.6c0,0,0,.2,0,.3v2.1h-.6v-2.6Z"/>
      <path class="st4" d="M52.1,62c0,.9.6,1.2,1.2,1.2s.7,0,1-.2v.5c-.1.1-.5.2-1.1.2-1.1,0-1.7-.7-1.7-1.8s.6-1.9,1.6-1.9,1.4,1,1.4,1.7,0,.2,0,.3h-2.5ZM54,61.6c0-.4-.2-1-.9-1s-.9.6-1,1h1.9Z"/>
      <path class="st4" d="M58.4,58.5v4.2c0,.3,0,.7,0,.9h-.6v-.6h0c-.2.4-.6.7-1.2.7-.8,0-1.5-.7-1.5-1.8,0-1.2.7-1.9,1.6-1.9s.9.3,1.1.5h0v-2.1h.6ZM57.8,61.6c0,0,0-.2,0-.3,0-.4-.4-.7-.9-.7s-1.1.6-1.1,1.4.3,1.3,1,1.3.8-.3.9-.8c0,0,0-.2,0-.3v-.6Z"/>
      <path class="st4" d="M60.2,59.2c0,.2-.2.4-.4.4s-.4-.2-.4-.4.2-.4.4-.4.4.2.4.4ZM59.5,63.7v-3.5h.6v3.5h-.6Z"/>
      <path class="st4" d="M61.2,61.3c0-.4,0-.8,0-1.1h.6v.6h0c.3-.4.7-.7,1.2-.7.8,0,1.5.7,1.5,1.8s-.8,1.9-1.6,1.9-.9-.2-1.1-.6h0v1.9h-.6v-3.8ZM61.8,62.2c0,0,0,.2,0,.3.1.4.5.7,1,.7.7,0,1.1-.6,1.1-1.4s-.4-1.3-1-1.3-.8.3-1,.8c0,0,0,.2,0,.3v.6Z"/>
      <path class="st4" d="M65.3,61.2c0-.4,0-.8,0-1.1h.6v.7h0c.2-.5.5-.8,1-.8s.1,0,.2,0v.6c0,0-.1,0-.2,0-.4,0-.8.3-.9.8,0,0,0,.2,0,.3v1.9h-.6v-2.4Z"/>
      <path class="st4" d="M70.8,61.9c0,1.3-.9,1.9-1.7,1.9s-1.7-.7-1.7-1.8.8-1.9,1.7-1.9,1.7.7,1.7,1.8ZM68,61.9c0,.8.4,1.3,1.1,1.3s1.1-.6,1.1-1.4-.3-1.3-1.1-1.3-1.1.7-1.1,1.4Z"/>
      <path class="st4" d="M71.3,63.3c0-.3.2-.5.4-.5s.4.2.4.5-.2.5-.4.5-.4-.2-.4-.5Z"/>
      <path class="st4" d="M72.9,61.2c0-.4,0-.8,0-1.1h.6v.7h0c.2-.5.5-.8,1-.8s.1,0,.2,0v.6c0,0-.1,0-.2,0-.4,0-.8.3-.9.8,0,0,0,.2,0,.3v1.9h-.6v-2.4Z"/>
      <path class="st4" d="M78.4,61.9c0,1.3-.9,1.9-1.7,1.9s-1.7-.7-1.7-1.8.8-1.9,1.7-1.9,1.7.7,1.7,1.8ZM75.6,61.9c0,.8.4,1.3,1.1,1.3s1.1-.6,1.1-1.4-.3-1.3-1.1-1.3-1.1.7-1.1,1.4Z"/>
    </g>
  </g>
</svg>