<?xml version="1.0" encoding="UTF-8"?>
<svg id="Layer_2" data-name="Layer 2" xmlns="http://www.w3.org/2000/svg" viewBox="0 0 2000 2000">
  <defs>
    <style>
      .cls-1 {
        fill: #0076b0;
      }

      .cls-2 {
        fill: #2f93ce;
      }

      .cls-3 {
        fill: #b2e1e9;
      }

      .cls-4 {
        fill: none;
      }

      .cls-5 {
        fill: #12547c;
      }

      .cls-6 {
        fill: #b4e0e9;
      }

      .cls-7 {
        fill: #fae894;
      }

      .cls-8 {
        fill: #8dc6e3;
      }

      .cls-9 {
        fill: #ecad0a;
      }

      .cls-10 {
        fill: #6fafdd;
      }
    </style>
  </defs>
  <g id="BACKROUNDS">
    <rect id="TRANSPARENT" class="cls-4" width="2000" height="2000"/>
  </g>
  <g id="_100_" data-name="100%">
    <g id="COLOR">
      <g id="BOAT">
        <path class="cls-5" d="M862.48,495.61c32.93,48.85,67.18,81.86,91.22,102.22,17.81,15.09,150.47,124.14,334.56,118.22,22.19-.71,47.92-1.7,81-10.56,98.33-26.33,165.74-98.38,192.57-133.6l-31.48-44.07s-204.76,54.01-423.42,14.01c-218.67-40-244.44-46.22-244.44-46.22Z"/>
        <polygon class="cls-5" points="1182.19 532.06 1152.56 527.91 1149.38 309.53 1177.15 313.39 1182.19 532.06"/>
        <path class="cls-5" d="M1192.26,315.47v19.26c25.78,22.44,73.49,52.69,88.22,103.33,3.56,12.22,2.67,24.89-4.67,32.67-20.59,21.84-42.44,26.22-78.95,24l.99,38.39c46.91,3.82,101.07,5.28,160.93,1.61,54.53-3.34,103.73-10.32,146.67-18.67-41.03-37.94-90.37-79.11-158.81-121.19-55.87-34.35-108.36-60.33-154.37-79.41Z"/>
        <path class="cls-2" d="M1062.48,304.06h58.22l4.44,207.11-34.67-3.11s-3.11-167.11-28-204Z"/>
        <path class="cls-10" d="M937.15,300.95h64.39s50.72,64.89,53.83,199.56h-37.78s-19.11-129.33-80.44-199.56Z"/>
        <path class="cls-8" d="M812.71,321.39l56.89-14.22s84,61.33,103.11,179.56l-39.56-2.67s-43.56-105.33-120.44-162.67Z"/>
        <path class="cls-6" d="M706.93,366.28l52.89-23.56s110.22,81.33,125.78,127.56l-52.44-8.89s-46.67-71.11-126.22-95.11Z"/>
      </g>
      <g id="SEA_BACKROUND" data-name="SEA BACKROUND">
        <path class="cls-1" d="M1531.23,1086.83s-9.08,37.9-8.1,45.56l-.05-.02c-35.71-19.32-78.31-36.17-127.68-45.54h-.01s29.76-36.84,29.17-43.36l106.67,43.36Z"/>
        <path class="cls-1" d="M1538.34,975.32l-69.93-8.3c59.99-101.92,53.01-169.5,52.75-171.79,28.44,146.32,17.18,180.09,17.18,180.09Z"/>
        <path class="cls-1" d="M484.28,999.39h-.01c-1.54.71-3.09,1.43-4.65,2.18-47.98,22.97-103.93,64.58-168.02,131.98-15.72-48.62-17.9-107.38-11.65-170.2h0c1.02.72,78.69,56.09,184.33,36.04Z"/>
        <path class="cls-1" d="M500.21,718.28s39.61,70.22-63.06,85.34c0,0-54.7,2.94-80.9-64.98,17.18-43.95,37.49-86.53,60.07-125.78.12-.2.24-.4.35-.6,25.37-44.03,53.61-83.86,83.52-116.75,0,0-.02.03-.04.05-.03.03-.05.06-.07.09-.05.05-.1.11-.16.18,0,0-.01,0-.01.01h0c-4.03,4.84-46.54,56.72-51.2,102.44-4.89,48,51.5,120,51.5,120Z"/>
        <path class="cls-1" d="M884.4,571.45v.02s-.01.03-.02.05c-5.28,17.73-10.55,35.45-15.83,53.18-10.12,26.4-20.24,52.81-30.36,79.21-2.19,5.83-4.37,11.66-6.56,17.49l-113.83,323.46c-25.96-22-52.16-41.63-81.34-53.77-16.12-6.7-33.15-11.12-51.55-12.38-17.4-1.19-35.7.19-55.15,4.78l-.15.04h-.02c2.42-1.29,157.54-84.56,188.21-223.03,2.12-11.39,4.42-29.86,1.45-51.88-9.48-70.43-62.12-98.03-55.88-156.56.86-8.06,3.15-27.26,15.57-33.16,14.34-6.82,38.26,5.98,51.54,22.49,19.62,24.38,37.55,83.6,38.67,88.45.01.03.03.12.09.15,2.86,1.33,60.37-115.15,60.37-115.15l.32.34c12.67,13.82,25.22,27,37.49,39.41h.01s.03.04.03.04c3.04,3.08,6.07,6.1,9.07,9.08l.56.56c2.44,2.39,4.87,4.79,7.31,7.18Z"/>
        <path class="cls-1" d="M1251.52,987.17c-10.3,10.3-19.91,21.41-28.68,32.57l-55.58,87.59h0s-.01.02-.01.02c-18.45,6.71-34.89,13.87-49.06,20.56l.03-.12,18.25-77.15c3.19-16.9,5.94-34.74,7.35-51.47,0,0-129.34-10.22-178.67-40.44,0,0,8.89-16.45,27.11-59.56,0,0,89.34,43.56,159.11,49.33,0,0,17.56-12.88,15.89-60.44,0,0-82.11-18.22-147.44-56l13.33-44.19s96.67,44.77,152.75,53.87l22.81-96.42c48.74,8.13,118.23,12.95,196.48-12.98,17.38,100.14-153.67,254.83-153.67,254.83Z"/>
        <path class="cls-1" d="M1033.15,787.87s96.67,44.77,152.75,53.87l-49.43,208.9c3.19-16.9,5.12-26.54,6.53-43.26,0,0-130.42-11.32-179.75-41.54,0,0,10.79-23.56,29.01-66.67,0,0,89.34,43.56,159.11,49.33,0,0,17.56-12.88,15.89-60.44,0,0-82.11-18.22-147.44-56l13.33-44.19Z"/>
      </g>
      <g id="Letters_SEA" data-name="Letters SEA">
        <path id="A_Letter" data-name="A Letter" class="cls-3" d="M1586.82,607.4c-27.18,32.5-84.32,91.06-175.96,123.02-1.9.66-3.79,1.3-5.67,1.92,17.38,100.14-153.67,254.83-153.67,254.83-2.43,2.45-4.9,5-7.38,7.66-1.18,1.26-4.09,4.39-7.53,8.3,0,0-6.86,7.8-13.77,16.61-7.15,9.13-28.94,41.61-55.58,87.59h0c53.45-19.42,123.7-35.06,203.99-24.39,8.22,1.09,16.27,2.4,24.14,3.89,0,0,29.76-36.84,29.17-43.36l106.67,43.36s-9.08,37.9-8.1,45.56l-.05-.02c74.45,40.27,127.35,100.97,140.98,117.31,53.1-39.47,93.41-454.59-77.24-642.28ZM1538.34,975.32l-69.93-8.3c59.99-101.92,53.01-169.5,52.75-171.79,28.44,146.32,17.18,180.09,17.18,180.09Z"/>
        <path id="E_Letter" data-name="E Letter" class="cls-3" d="M884.38,571.52s0-.04,0-.05v-.02c38.27,37.29,73.12,66.36,100,83.65,42.41,27.28,101.3,64.38,188,83.12,10.24,2.21,22.44,4.79,36.32,7.1l-22.81,96.42c-56.08-9.1-152.75-53.87-152.75-53.87l-13.33,44.19c65.33,37.78,147.44,56,147.44,56,1.67,47.56-15.89,60.44-15.89,60.44-69.77-5.77-159.11-49.33-159.11-49.33-18.22,43.11-29.01,66.67-29.01,66.67,49.33,30.22,179.75,41.54,179.75,41.54-.6,6.57-.72,7.15-2.19,17.47,0,0-1.72,12.05-4.34,25.8-5.86,30.67-16.49,70.56-18.25,77.15l-.03.12c-27.85,11.44-49.74,20.87-64.07,27.12-23.57,10.29-35.63,15.91-54.56,19.77,0,0-19.15,3.55-41.14,3.64-90.67.34-175.73-78.6-240.61-133.58l113.83-323.46"/>
        <path id="S_Lettera" data-name="S Lettera" class="cls-3" d="M829.93,515.18l-.32-.34s-57.51,116.48-60.37,115.15c-.06-.03-.08-.12-.09-.15-1.12-4.85-19.05-64.07-38.67-88.45-13.28-16.51-37.2-29.31-51.54-22.49-12.42,5.9-14.71,25.1-15.57,33.16-6.24,58.53,46.4,86.13,55.88,156.56,2.97,22.02.67,40.49-1.45,51.88-30.67,138.47-185.79,221.74-188.21,223.03,0,.01-.01.01-.01.01-14.44,3.42-29.5,8.62-45.3,15.85-105.64,20.05-183.31-35.32-184.33-36.05,7.2-72.58,27.31-150.59,56.3-224.7,26.2,67.92,80.9,64.98,80.9,64.98,102.67-15.12,63.06-85.34,63.06-85.34,0,0-56.39-72-51.5-120,4.66-45.72,47.17-97.6,51.2-102.43h0s.01-.02.01-.02c.06-.07.11-.13.16-.18.02-.03.04-.06.07-.09.02-.02.04-.04.04-.05,90.76-99.82,196.95-135.73,285.33-30.86,14.82,17.6,29.7,34.5,44.41,50.53Z"/>
      </g>
      <path id="SIDE_BACKROUND" data-name="SIDE BACKROUND" class="cls-9" d="M556.41,1495.02c-23.82,8.54-102.94-56.37-104.1-57.32h-.01s-.01-.02-.01-.02c-28.25-36.24-51.28-72.5-69.83-106.03,32.86,43.14,197.95,154.78,173.95,163.37ZM650.58,1025.97s-29.03-25.19-81.34-25.19c-32.4,0-67.41,17.18-79.07,23.52-1.85,1-2.99,1.7-3.57,2.05,0,0,60.18-6.6,89.96,11.77l-4.15,211.56s-107.85-26.67-107.85,21.33,89.48,93.04,89.48,93.04c0,0,116.15,90.67,140.44,208,0,0,18.92,42.6-21.64,52.12l2.23,1.16c.61.31,1.22.63,1.83.94,17.57,9.02,35.93,17.42,55.11,25.07h0s.11.05.11.05c17.69,7.06,36.08,13.49,55.19,19.2h.01c-204.05-383.23-136.73-644.63-136.73-644.63ZM878.07,1187.98c-28.37-10.89-52.27-23.78-73.17-37.55,0,0-39.92,265.29,79.5,541.68,14.46,2.16,29.26,3.93,44.42,5.27,0,0-80.05-237.49-50.75-509.4ZM1066.04,1361.06c-14.23-28.68-49.33-17.76-49.33-17.76v266.09c11.99-4.6,27.15,1.33,39.11-20.35,35.3-64,38.52-170.97,10.22-227.98ZM1058.32,1182.42c5.78-1.72,296.94-95.24,150.39,352.31,0,0-33.21,117.22-130.6,161.95,45.82-4.72,88.47-13.57,128.09-25.58.86-.25,1.71-.52,2.56-.78,5.17-1.59,10.29-3.23,15.36-4.93l137.16-560.81c-17.13-3.05-77.8,1.35-102.04,3.62-87.47,8.18-200.92,74.22-200.92,74.22ZM1403.16,1471.71l-28.73,47.73c-1.64,2.71.81,6.05,3.88,5.31,20.32-4.9,74.1-18.11,117.12-30.86.06-.05.11-.1.14-.14,15.39-15.57,29.46-31.16,42.29-46.43,0,0-95.17,17.01-125.47,18.83-3.81.23-7.26,2.3-9.23,5.56ZM1517.56,1277.05c-4.94-1.87-10.44.63-12.28,5.58l-22.31,60.18c-1.86,5.01,1.36,10.47,6.65,11.26,19.36,2.92,63.02,9.22,103.47,13.23.42.04.84.09,1.26.12h0s2.51.25,2.51.25c15.83-24.36,27.51-45.26,35.36-60.39.01-.03.03-.05.03-.07-1.08-.22-77.1-15.95-114.69-30.16ZM382.46,1331.65l102.36,88s76.8,45.42,100.62,36.88c24-8.59-170.13-81.74-202.99-124.88ZM385.2,1110.32s.04-.05.05-.06l21.94-34.97c-6.57,5.44-18.77,15.5-28.61,25.74-23.91,24.88-49.29,56.63-57.8,67.89,4.57,24.55,5.57,27.32,16.08,66.36,5.76-52.16,22.74-93.17,48.35-124.96Z"/>
      <path id="LETTERS_SIDE" data-name="LETTERS SIDE" class="cls-7" d="M884.4,1692.11c-34.27-5.1-66.59-12.39-97.08-21.51-204.05-383.23-136.73-644.63-136.73-644.63,42.84,39.32,65.1,56.28,84.03,71.67,19.98,16.25,36.26,30.39,70.29,52.79,0,0-39.92,265.29,79.5,541.68ZM1208.71,1534.73s-33.21,117.22-130.6,161.95h-.01c-24.6,2.54-50.11,3.88-76.56,3.88-25.09,0-49.33-1.09-72.72-3.18,0,0-80.05-237.49-50.75-509.4,63.47,18.42,79.17,18.18,102.28,15.03,20.97-2.86,50.71-7.12,77.78-20.46,4.75-2.34,303.7-94.62,150.58,352.18ZM1066.04,1361.06c-14.23-28.68-49.33-17.76-49.33-17.76v266.09c11.99-4.6,27.15,1.33,39.11-20.35,35.3-64,38.52-170.97,10.22-227.98ZM1361.28,1104.58l-137.16,560.81c116.46-38.93,205.67-105.02,271.31-171.5-43.02,12.75-96.8,25.96-117.12,30.86-3.07.74-5.52-2.6-3.88-5.31l28.73-47.73c1.97-3.26,5.42-5.33,9.23-5.56,30.3-1.82,125.47-18.83,125.47-18.83,23.88-28.41,43.45-55.7,59-79.65l-2.51-.24h0c-.42-.04-.84-.09-1.26-.13-40.45-4.01-84.11-10.31-103.47-13.23-5.29-.79-8.51-6.25-6.65-11.26l22.31-60.18c1.84-4.95,7.34-7.45,12.28-5.58,37.59,14.21,113.61,29.94,114.69,30.16h.01c8.43-16.25,20.69-30.78,20.69-30.78,0,0-89.44-144.04-291.67-171.85ZM693.89,1542.43c-43.56-145.48-221.79-222-227.85-269.7-6.05-47.62,106.37-23.04,106.37-23.04l4.15-211.56c-30.96-22.12-86.39-13.82-86.39-13.82-61.39,35.28-86.31,45.93-113.25,83.99-21.79,30.78-45.4,68.65-40.07,126.99,10.51,26.5,25.39,59.81,45.61,96.36,32.86,43.14,197.95,154.78,173.95,163.37-23.82,8.54-102.94-56.37-104.1-57.32,53.28,68.34,125.13,136.64,220.52,186.48h.01c47.42,0,21.05-81.75,21.05-81.75Z"/>
    </g>
  </g>
</svg>